<?xml version="1.0" standalone="no"?>
<!DOCTYPE svg PUBLIC "-//W3C//DTD SVG 20010904//EN"
 "http://www.w3.org/TR/2001/REC-SVG-20010904/DTD/svg10.dtd">
<svg version="1.0" xmlns="http://www.w3.org/2000/svg"
 width="200.000000pt" height="75.000000pt" viewBox="0 0 200.000000 75.000000"
 preserveAspectRatio="xMidYMid meet">
<metadata>
Created by potrace 1.10, written by Peter Selinger 2001-2011
</metadata>
<g transform="translate(0.000000,75.000000) scale(0.100000,-0.100000)"
fill="#ffff" stroke="none">
<path d="M362 689 c-12 -18 -11 -24 2 -37 14 -14 17 -14 36 3 19 17 19 19 4
37 -22 23 -26 23 -42 -3z"/>
<path d="M280 683 c0 -5 -17 -25 -37 -46 l-36 -39 49 -49 49 -48 42 49 41 50
11 -30 c5 -17 15 -30 21 -30 17 0 70 30 70 39 0 14 -30 81 -36 81 -10 0 -69
-33 -75 -41 -3 -5 -23 9 -44 31 -37 38 -55 49 -55 33z m42 -60 l26 -28 -23
-29 -24 -30 -25 25 c-31 29 -31 33 -8 64 22 31 23 31 54 -2z m125 -50 c-19
-10 -24 -8 -34 10 -11 19 -9 25 10 41 21 18 22 18 33 -10 11 -26 10 -30 -9
-41z"/>
<path d="M493 683 c-14 -5 -17 -29 -5 -37 4 -2 13 -2 19 2 14 9 1 40 -14 35z"/>
<path d="M507 633 c-14 -13 -6 -41 13 -46 23 -6 43 14 34 37 -6 16 -35 22 -47
9z"/>
<path d="M498 544 c-11 -23 -10 -29 11 -45 31 -25 38 -24 56 11 15 29 15 30
-14 45 -39 20 -39 20 -53 -11z m52 -19 c0 -19 -20 -29 -32 -17 -15 15 -2 43
17 36 8 -3 15 -12 15 -19z"/>
<path d="M355 530 c-16 -18 -17 -23 -5 -45 16 -30 22 -31 45 -5 17 18 17 21 1
45 -20 30 -18 30 -41 5z m31 -36 c-5 -13 -10 -14 -18 -6 -6 6 -8 18 -4 28 5
13 10 14 18 6 6 -6 8 -18 4 -28z"/>
<path d="M422 492 c-18 -15 -32 -31 -32 -37 1 -5 15 -27 33 -47 l32 -37 39 34
38 34 -32 41 c-17 22 -35 40 -38 40 -4 0 -22 -13 -40 -28z m62 -24 c14 -20 14
-24 -1 -40 -22 -25 -37 -23 -53 7 -12 22 -11 27 6 40 26 19 30 19 48 -7z"/>
<path d="M160 479 c-102 -41 -146 -178 -87 -268 31 -46 90 -81 140 -81 85 0
167 85 167 173 0 36 -2 39 -22 33 -13 -3 -26 -6 -30 -6 -5 0 -8 -12 -8 -27 0
-43 -34 -89 -73 -102 -92 -31 -174 76 -127 164 15 29 57 55 88 55 17 0 18 5
13 32 -7 36 -23 42 -61 27z"/>
<path d="M276 446 l-30 -23 23 -31 c27 -38 40 -40 70 -8 l23 25 -23 30 c-13
16 -26 30 -29 30 -3 1 -18 -10 -34 -23z m48 -22 c4 -9 1 -23 -5 -31 -11 -12
-14 -12 -27 1 -17 17 -10 46 12 46 7 0 17 -7 20 -16z"/>
<path d="M528 369 c0 -2 -2 -57 -3 -121 -1 -93 1 -118 12 -118 9 0 13 14 13
44 l0 43 58 6 c42 4 62 12 75 28 22 28 22 61 -2 90 -15 19 -30 24 -85 27 -36
2 -67 3 -68 1z m127 -39 c18 -15 20 -51 3 -68 -7 -7 -34 -12 -60 -12 l-48 0 0
51 0 52 45 -5 c25 -3 52 -11 60 -18z"/>
<path d="M740 250 c0 -103 2 -120 16 -120 12 0 15 10 13 46 l-3 46 52 2 c63 4
92 26 92 70 0 56 -31 76 -114 76 l-56 0 0 -120z m113 91 c30 -12 42 -43 27
-71 -9 -16 -21 -20 -66 -20 -47 0 -55 3 -50 16 3 9 6 31 6 50 0 31 3 34 29 34
16 0 41 -4 54 -9z"/>
<path d="M981 344 c-52 -43 -54 -138 -4 -188 20 -20 36 -26 69 -26 83 0 131
74 105 160 -23 79 -109 106 -170 54z m120 -23 c33 -34 39 -83 14 -130 -39 -76
-145 -41 -145 48 0 99 70 142 131 82z"/>
<path d="M1210 250 c0 -104 2 -120 16 -120 14 0 16 9 12 51 l-5 50 41 -3 c38
-3 43 -7 66 -50 14 -27 31 -48 38 -48 6 0 12 2 12 5 0 12 -40 84 -51 90 -7 5
-2 12 13 19 41 20 37 94 -7 114 -14 7 -50 12 -80 12 l-55 0 0 -120z m99 94
c43 -9 58 -37 36 -70 -13 -20 -23 -24 -66 -24 -43 0 -50 3 -45 16 3 9 6 31 6
50 0 37 8 40 69 28z"/>
<path d="M1402 358 c3 -7 23 -14 46 -16 l42 -3 0 -105 c0 -90 2 -104 16 -104
15 0 16 12 12 104 l-6 105 47 3 c86 6 48 23 -57 26 -81 2 -103 0 -100 -10z"/>
<path d="M1630 250 c0 -100 3 -120 15 -120 13 0 15 20 15 120 0 100 -2 120
-15 120 -12 0 -15 -20 -15 -120z"/>
<path d="M1751 344 c-52 -43 -54 -138 -4 -188 20 -20 36 -26 69 -26 83 0 131
74 105 160 -23 79 -109 106 -170 54z m120 -23 c33 -34 39 -83 14 -130 -39 -76
-145 -41 -145 48 0 99 70 142 131 82z"/>
</g>
</svg>
